<svg xmlns="http://www.w3.org/2000/svg" viewBox="0 0 100 100">
  <defs>
    <linearGradient id="namibiaGradient" x1="0%" y1="0%" x2="100%" y2="100%">
      <stop offset="0%" style="stop-color:#d97706"/>
      <stop offset="50%" style="stop-color:#0891b2"/>
      <stop offset="100%" style="stop-color:#059669"/>
    </linearGradient>
    <linearGradient id="sunGradient" x1="0%" y1="0%" x2="0%" y2="100%">
      <stop offset="0%" style="stop-color:#fbbf24"/>
      <stop offset="100%" style="stop-color:#d97706"/>
    </linearGradient>
  </defs>
  
  <!-- Background circle -->
  <circle cx="50" cy="50" r="48" fill="url(#namibiaGradient)"/>
  
  <!-- Desert dunes silhouette -->
  <path d="M0 70 Q25 55 50 65 Q75 75 100 60 L100 100 L0 100 Z" fill="#92400e" opacity="0.6"/>
  <path d="M0 75 Q30 60 60 70 Q85 80 100 68 L100 100 L0 100 Z" fill="#78350f" opacity="0.8"/>
  
  <!-- Sun -->
  <circle cx="50" cy="35" r="15" fill="url(#sunGradient)"/>
  
  <!-- Sun rays -->
  <g stroke="#fbbf24" stroke-width="2" opacity="0.7">
    <line x1="50" y1="15" x2="50" y2="8"/>
    <line x1="65" y1="20" x2="70" y2="14"/>
    <line x1="70" y1="35" x2="78" y2="35"/>
    <line x1="65" y1="50" x2="70" y2="56"/>
    <line x1="35" y1="20" x2="30" y2="14"/>
    <line x1="30" y1="35" x2="22" y2="35"/>
    <line x1="35" y1="50" x2="30" y2="56"/>
  </g>
  
  <!-- Oryx silhouette -->
  <path d="M42 58 L44 52 L46 48 L48 52 L50 58 L52 52 L54 48 L56 52 L58 58 L56 60 L54 58 L52 60 L50 58 L48 60 L46 58 L44 60 Z" fill="#1c1917"/>
  
  <!-- Letter N stylized -->
  <text x="50" y="92" font-family="Arial Black, sans-serif" font-size="18" font-weight="bold" fill="white" text-anchor="middle">N</text>
</svg>
